Supernatural S06E17 HDTV 720p DD5.1 NL Subs

Verenigde Staten / Canada ~ 60 minuten ~ gecreëerd door Eric Kripke ~ met Jared Padalecki & Jensen Ackles

Nadat Balthazar geschiedenis veranderd en de Titanic niet laat zinken, grijpt Fate in en begint degene te doden die op het schip gestorven zouden zijn. Castiel verteld Sam en Dean dat Fate zeer boos is op hun twee en de enige manier om te blijven leven is haar te doden.

Bestandsformaat: .MKV
Bestandsgrootte: 1,09 GB
Taal: Engels DD5.1 & 2.0
Ondertitelingen: Engels en Nederlands ~ Nederlands custom door MugenJin of JaySnake (in te stellen)
Categorie : Serie
Formaat : NVT
Bron : HDTV
Menu: Nee
Extra's: Nee
Genre : Mysterie
Weblink :  http://www.imdb.com/title/tt0460681/

~~~~~~~~~~~~~~~~~~~~~~
USA / Canada ~ 60 minutes ~ created by Eric Kripke ~ with Jared Padalecki & Jensen Ackles.

After Balthazar changes history and keeps the Titanic from sinking, Fate intervenes and begins killing those that would have died on the ship. Castiel tells Sam and Dean that Fate is very upset with the two of them and the only way they can stay alive is to kill her.

File Format: .MKV
File size: 1.09 GB
Language: English DD5.1 & 2.0
Subtitles: English and Dutch ~ both custom (selectable)
Category : Serie
Format : -
Source : HDTV
Menu: No
Extras: No
Genre : Mystery
Weblink :  http://www.imdb.com/title/tt0460681/

Video and audio information:
~~~~~~~~~~~~~~~~~~~~~~
Video
ID                               : 1
Format                           : AVC
Format/Info                      : Advanced Video Codec
Format profile                   : High@L3.1
Format settings, CABAC           : Yes
Format settings, ReFrames        : 3 frames
Codec ID                         : V_MPEG4/ISO/AVC
Duration                         : 41mn 2s
Bit rate                         : 3 424 Kbps
Width                            : 1 280 pixels
Height                           : 720 pixels
Display aspect ratio             : 16:9
Frame rate                       : 23.976 fps
Color space                      : YUV
Chroma subsampling               : 4:2:0
Bit depth                        : 8 bits
Scan type                        : Progressive
Bits/(Pixel*Frame)               : 0.155
Stream size                      : 985 MiB (88%)
Writing library                  : x264 core 88 r1471 1144615
Encoding settings                : cabac=1 / ref=3 / deblock=1:0:0 / analyse=0x3:0x113 / me=hex / subme=6 / psy=1 / psy_rd=1.00:0.00 / mixed_ref=0 / me_range=16 / chroma_me=1 / trellis=1 / 8x8dct=1 / cqm=0 / deadzone=21,11 / fast_pskip=1 / chroma_qp_offset=-2 / threads=30 / sliced_threads=0 / nr=0 / decimate=1 / mbaff=0 / constrained_intra=0 / bframes=6 / b_pyramid=1 / b_adapt=2 / b_bias=0 / direct=1 / wpredb=1 / wpredp=0 / keyint=240 / keyint_min=24 / scenecut=40 / intra_refresh=0 / rc_lookahead=40 / rc=2pass / mbtree=1 / bitrate=3424 / ratetol=1.0 / qcomp=0.60 / qpmin=10 / qpmax=51 / qpstep=4 / cplxblur=20.0 / qblur=0.5 / ip_ratio=1.40 / aq=1:1.00
Language                         : English

Audio
ID                               : 2
Format                           : AC-3
Format/Info                      : Audio Coding 3
Mode extension                   : CM (complete main)
Codec ID                         : A_AC3
Duration                         : 41mn 2s
Bit rate mode                    : Constant
Bit rate                         : 384 Kbps
Channel(s)                       : 6 channels
Channel positions                : Front: L C R, Side: L R, LFE
Sampling rate                    : 48.0 KHz
Bit depth                        : 16 bits
Compression mode                 : Lossy
Stream size                      : 113 MiB (10%)
Title                            : English
Language                         : English

~~~~~~~~~~~~~~~
Hornigold TBS
~~~~~~~~~~~~~~~